<svg width="400" height="400" viewBox="0 0 400 400" fill="none" xmlns="http://www.w3.org/2000/svg">
<g clip-path="url(#clip0_588_4030)">
<path d="M140.761 154.172L35.1995 229.806L35.373 99.9329M140.761 154.172L35.373 99.9329M140.761 154.172L246.322 78.5367L246.148 208.41L140.761 154.172ZM140.761 154.172L140.934 24.2979L35.373 99.9329M35.373 99.9329L-70.1878 175.567L-70.0142 45.694M35.373 99.9329L-70.0142 45.694M35.373 99.9329L35.5467 -29.9405L-70.0142 45.694M246.52 -51.3233L140.959 24.3115L141.133 -105.562M246.52 -51.3233L141.133 -105.562M246.52 -51.3233L246.694 -181.197L141.133 -105.562M141.133 -105.562L35.5713 -29.9275L35.7448 -159.801L141.133 -105.562ZM141.133 -105.562L35.7454 -159.801M141.133 -105.562L141.307 -235.435L35.7454 -159.801M-70.0142 45.694L-175.576 121.329L-175.402 -8.54442M-70.0142 45.694L-175.402 -8.54442M-70.0142 45.694L-69.8411 -84.1794L-175.402 -8.54442M35.7454 -159.801L-69.8158 -84.1658L-69.6422 -214.039M35.7454 -159.801L-69.6422 -214.039M35.7454 -159.801L35.9187 -289.674L-69.6422 -214.039M-69.6422 -214.039L-175.204 -138.405L-175.03 -268.278M-69.6422 -214.039L-175.03 -268.278M-69.6422 -214.039L-69.4688 -343.913L-175.03 -268.278M-175.03 -268.278L-280.591 -192.643L-280.418 -322.516M-175.03 -268.278L-280.418 -322.516M-175.03 -268.278L-174.856 -398.152L-280.418 -322.516M-280.418 -322.516L-385.979 -246.882L-385.805 -376.755M-280.418 -322.516L-385.805 -376.755M-280.418 -322.516L-280.244 -452.39L-385.805 -376.755M-385.805 -376.755L-491.366 -301.121L-491.193 -430.994M-385.805 -376.755L-491.193 -430.994M-385.805 -376.755L-385.632 -506.629L-491.193 -430.994M-491.193 -430.994L-596.754 -355.359L-596.581 -485.233M-491.193 -430.994L-596.581 -485.233M-491.193 -430.994L-491.019 -560.868L-596.581 -485.233M-175.402 -8.54442L-280.963 67.0902L-280.79 -62.7833M-175.402 -8.54442L-280.79 -62.7833M-175.402 -8.54442L-175.229 -138.418L-280.79 -62.7833M-280.79 -62.7833L-386.351 12.8511L-386.177 -117.022M-280.79 -62.7833L-386.177 -117.022M-280.79 -62.7833L-280.616 -192.656L-386.177 -117.022M-386.177 -117.022L-491.738 -41.3869L-491.565 -171.26M-386.177 -117.022L-491.565 -171.26M-386.177 -117.022L-386.004 -246.896L-491.565 -171.26M-491.565 -171.26L-597.126 -95.6261L-596.952 -225.5M-491.565 -171.26L-596.952 -225.5M-596.952 -225.5L-702.514 -149.865L-702.34 -279.739M-596.952 -225.5L-702.34 -279.739M-596.952 -225.5L-491.392 -301.135L-491.565 -171.261L-596.952 -225.5ZM-596.952 -225.5L-596.779 -355.373L-702.34 -279.739M-702.34 -279.739L-807.901 -204.103L-807.728 -333.977M-702.34 -279.739L-807.728 -333.977M-807.728 -333.977L-702.166 -409.611L-702.34 -279.738L-807.728 -333.977ZM35.1871 229.8L-70.374 305.435L-70.2005 175.561M35.1871 229.8L-70.2005 175.561M35.1871 229.8L140.748 154.165L140.575 284.039L35.1871 229.8ZM35.1871 229.8L35.3604 99.9261L-70.2005 175.561M-70.2005 175.561L-175.762 251.196L-175.588 121.322M-70.2005 175.561L-175.588 121.322M-70.2005 175.561L-70.0273 45.6873L-175.588 121.322M-175.961 381.057L-70.4 305.422L-70.5734 435.296M-175.961 381.057L-70.5734 435.296M-175.961 381.057L-281.349 326.818M-175.961 381.057L-175.787 251.183L-281.349 326.818M-175.961 381.057L-176.134 510.93L-70.5734 435.296M-175.961 381.057L-281.522 456.692L-281.348 326.818M-175.961 381.057L-281.348 326.818M-281.349 326.818L-386.91 402.452L-386.736 272.579L-281.349 326.818ZM-386.736 272.58L-281.175 196.945L-281.348 326.818M-386.736 272.58L-281.348 326.818M-386.736 272.58L-492.124 218.341M-386.736 272.58L-386.563 142.706L-492.124 218.341M-386.736 272.58L-492.297 348.214L-492.124 218.341M-492.124 218.341L-597.512 164.102M-492.124 218.341L-491.95 88.467L-597.512 164.102M-492.124 218.341L-597.685 293.976L-597.512 164.102M-597.512 164.102L-702.899 109.863M-597.512 164.102L-597.338 34.2284L-702.899 109.863M-597.512 164.102L-703.073 239.737L-702.899 109.863M-702.899 109.863L-808.286 55.6243M-702.899 109.863L-702.725 -20.0104L-808.286 55.6243M-702.899 109.863L-808.46 185.498L-808.286 55.6243M246.707 -181.191L141.146 -105.556L141.319 -235.43M246.707 -181.191L141.319 -235.43M246.707 -181.191L246.88 -311.065L141.319 -235.43M141.319 -235.43L35.7581 -159.795L35.9317 -289.668M141.319 -235.43L35.9317 -289.668M141.319 -235.43L141.493 -365.304L35.9317 -289.668M35.9317 -289.668L-69.6294 -214.034L-69.4559 -343.907M35.9317 -289.668L-69.4559 -343.907M35.9317 -289.668L36.1054 -419.542L-69.4559 -343.907M-69.4559 -343.907L-175.017 -268.272L-174.843 -398.146M-69.4559 -343.907L-174.843 -398.146M-69.4559 -343.907L-69.2822 -473.781L-174.843 -398.146M-174.843 -398.146L-280.404 -322.511L-280.231 -452.385M-174.843 -398.146L-280.231 -452.385M-280.231 -452.385L-385.793 -376.75L-385.619 -506.624M-280.231 -452.385L-385.619 -506.624M-280.231 -452.385L-174.67 -528.02L-174.844 -398.146L-280.231 -452.385ZM-280.231 -452.385L-280.057 -582.258L-385.619 -506.624M-385.619 -506.624L-491.18 -430.989L-491.006 -560.862M-385.619 -506.624L-491.006 -560.862M-385.619 -506.624L-385.445 -636.497L-491.006 -560.862M-175.588 121.322L-281.15 196.957L-280.976 67.0835M-175.588 121.322L-280.976 67.0835M-175.588 121.322L-175.415 -8.55122L-280.976 67.0835M-280.976 67.0835L-386.537 142.718L-386.363 12.8449M-280.976 67.0835L-386.363 12.8449M-280.976 67.0835L-280.802 -62.79L-386.363 12.8449M-386.363 12.8449L-491.925 88.4795L-491.751 -41.3939M-386.363 12.8449L-491.751 -41.3939M-386.363 12.8449L-386.19 -117.029L-491.751 -41.3939M-491.751 -41.3939L-597.312 34.2406L-597.139 -95.6329M-491.751 -41.3939L-597.139 -95.6329M-491.751 -41.3939L-491.577 -171.267L-597.139 -95.6329M-597.139 -95.6329L-702.7 -19.9976L-702.526 -149.871M-597.139 -95.6329L-702.526 -149.871M-597.139 -95.6329L-596.965 -225.506L-702.526 -149.871M-702.526 -149.871L-808.087 -74.2367L-807.914 -204.11M-702.526 -149.871L-807.914 -204.11M-702.526 -149.871L-702.353 -279.745L-807.914 -204.11M246.334 78.5433L140.773 154.178L140.947 24.3045M246.334 78.5433L140.947 24.3045M246.334 78.5433L246.508 -51.3306L140.947 24.3045M140.947 24.3045L35.3855 99.9391L35.5591 -29.9344M140.947 24.3045L35.5591 -29.9344M140.947 24.3045L141.12 -105.569L35.5591 -29.9344M35.5591 -29.9344L-70.002 45.7008L-69.8285 -84.1727M35.5591 -29.9344L-69.8285 -84.1727M35.5591 -29.9344L35.7325 -159.808L-69.8285 -84.1727M-69.8285 -84.1727L-175.39 -8.53808L-175.216 -138.412M-69.8285 -84.1727L-175.216 -138.412M-69.8285 -84.1727L-69.6548 -214.046L-175.216 -138.412M-175.216 -138.412L-280.777 -62.7764L-280.604 -192.65M-175.216 -138.412L-280.604 -192.65M-175.216 -138.412L-175.043 -268.285L-280.604 -192.65M-280.604 -192.65L-386.165 -117.015L-385.991 -246.889M-280.604 -192.65L-385.991 -246.889M-280.604 -192.65L-280.43 -322.524L-385.991 -246.889M-385.991 -246.889L-491.553 -171.254L-491.379 -301.128M-385.991 -246.889L-491.379 -301.128M-385.991 -246.889L-385.818 -376.762L-491.379 -301.128M-491.379 -301.128L-596.94 -225.493L-596.766 -355.366M-491.379 -301.128L-596.766 -355.366M-491.379 -301.128L-491.205 -431.001L-596.766 -355.366M-596.766 -355.366L-702.328 -279.732L-702.154 -409.605M-596.766 -355.366L-702.154 -409.605M-596.766 -355.366L-596.593 -485.239L-702.154 -409.605M-70.3867 305.428L35.1744 229.793L35.0008 359.666M-70.3867 305.428L35.0008 359.666M-70.3867 305.428L-175.948 381.062L-175.774 251.189M-70.3867 305.428L-175.774 251.189M-70.3867 305.428L-70.2131 175.554L-175.774 251.189M-70.3867 305.428L-70.5602 435.301L35.0008 359.666M-175.774 251.189L-281.335 326.823L-281.162 196.95M-175.774 251.189L-281.162 196.95M-175.774 251.189L-175.601 121.316L-281.162 196.95M-281.162 196.95L-386.723 272.585L-386.55 142.712M-281.162 196.95L-386.55 142.712M-281.162 196.95L-280.988 67.0764L-386.55 142.712M-386.55 142.712L-492.111 218.346L-491.937 88.4725M-386.55 142.712L-491.937 88.4725M-386.55 142.712L-386.376 12.8383L-491.937 88.4725M-491.937 88.4725L-597.498 164.108L-597.325 34.2343M-491.937 88.4725L-597.325 34.2343M-491.937 88.4725L-491.764 -41.4006L-597.325 34.2343M-597.325 34.2343L-702.886 109.869L-702.713 -20.0045M-597.325 34.2343L-702.713 -20.0045M-597.325 34.2343L-597.151 -95.6397L-702.713 -20.0045M-702.713 -20.0045L-808.274 55.6299L-808.1 -74.2436M-702.713 -20.0045L-808.1 -74.2436M-702.713 -20.0045L-702.539 -149.878L-808.1 -74.2436M-703.271 369.597L-597.71 293.962L-597.884 423.835M-703.271 369.597L-597.884 423.835M-703.271 369.597L-808.659 315.358L-703.098 239.724L-703.271 369.597ZM-597.884 423.835L-492.322 348.201L-492.496 478.074M-597.884 423.835L-492.496 478.074M141.692 -495.164L247.079 -440.925L141.518 -365.29L141.692 -495.164ZM141.692 -495.164L36.1302 -419.529L36.3038 -549.402M141.692 -495.164L36.3038 -549.402M-597.698 293.968L-492.137 218.333L-492.31 348.207M-597.698 293.968L-492.31 348.207M-597.698 293.968L-703.085 239.73M-597.698 293.968L-597.524 164.095L-703.085 239.73M-597.698 293.968L-597.871 423.842L-492.31 348.207M-597.698 293.968L-703.259 369.603L-703.085 239.73M-492.31 348.207L-386.749 272.572L-386.922 402.446M-492.31 348.207L-386.922 402.446M-492.31 348.207L-492.484 478.08L-386.922 402.446M-281.535 456.684L-387.096 532.319L-386.922 402.446M-281.535 456.684L-386.922 402.446M-281.535 456.684L-176.147 510.923M-281.535 456.684L-281.708 586.558L-176.147 510.923M-281.535 456.684L-281.361 326.811L-386.922 402.446M-281.535 456.684L-175.973 381.05L-176.147 510.923M-174.657 -528.013L-69.0961 -603.647L-69.2697 -473.774M-174.657 -528.013L-69.2697 -473.774M-174.657 -528.013L-280.045 -582.251M-174.657 -528.013L-174.484 -657.886L-280.045 -582.251M-174.657 -528.013L-174.831 -398.139L-69.2697 -473.774M-174.657 -528.013L-280.218 -452.378L-280.045 -582.251M-69.2697 -473.774L36.2917 -549.408L36.1181 -419.535M-69.2697 -473.774L36.1181 -419.535M-69.2697 -473.774L-69.4432 -343.901L36.1181 -419.535M-703.085 239.73L-808.473 185.491M-703.085 239.73L-702.912 109.856L-808.473 185.491M-703.085 239.73L-808.646 315.365L-808.473 185.491M-280.045 -582.251L-385.433 -636.49M-280.045 -582.251L-279.871 -712.125L-385.433 -636.49M-280.045 -582.251L-385.606 -506.617L-385.433 -636.49M246.893 -311.058L141.332 -235.423L141.505 -365.297M246.893 -311.058L141.505 -365.297M246.893 -311.058L247.067 -440.931L141.505 -365.297M141.505 -365.297L35.9445 -289.662L36.1181 -419.535M141.505 -365.297L36.1181 -419.535M141.505 -365.297L141.679 -495.17L36.1181 -419.535M-492.496 478.074L-386.935 402.44L-387.108 532.313L-492.496 478.074ZM36.3038 -549.402L-69.2572 -473.767L-69.0836 -603.641M36.3038 -549.402L-69.0836 -603.641M-69.0836 -603.641L-174.645 -528.006L-174.471 -657.88M-69.0836 -603.641L-174.471 -657.88M-174.471 -657.88L-280.033 -582.245L-279.859 -712.119L-174.471 -657.88ZM140.587 284.044L246.148 208.41L140.761 154.171L140.587 284.044ZM35.0131 359.672L140.574 284.037L35.1866 229.799L35.0131 359.672ZM-281.547 456.677L-387.108 532.312L-281.721 586.551L-281.547 456.677Z" stroke="#1C1C1E" stroke-width="3" stroke-linecap="round" stroke-linejoin="round"/>
</g>
<defs>
<clipPath id="clip0_588_4030">
<rect width="400" height="400" fill="white"/>
</clipPath>
</defs>
</svg>
