<svg width="400" height="400" viewBox="0 0 400 400" fill="none" xmlns="http://www.w3.org/2000/svg">
<g clip-path="url(#clip0_588_4147)">
<path d="M259.24 245.828L364.801 170.194L364.627 300.067M259.24 245.828L364.627 300.067M259.24 245.828L153.679 321.463L153.852 191.59L259.24 245.828ZM259.24 245.828L259.066 375.702L364.627 300.067M364.627 300.067L470.188 224.432L470.014 354.306M364.627 300.067L470.014 354.306M364.627 300.067L364.454 429.94L470.014 354.306M153.48 451.323L259.041 375.688L258.867 505.562M153.48 451.323L258.867 505.562M153.48 451.323L153.307 581.197L258.867 505.562M258.867 505.562L364.429 429.927L364.255 559.801L258.867 505.562ZM258.867 505.562L364.255 559.801M258.867 505.562L258.694 635.435L364.255 559.801M470.014 354.306L575.576 278.671L575.402 408.544M470.014 354.306L575.402 408.544M470.014 354.306L469.841 484.179L575.402 408.544M364.255 559.801L469.816 484.166L469.642 614.039M364.255 559.801L469.642 614.039M364.255 559.801L364.082 689.674L469.642 614.039M469.642 614.039L575.204 538.405L575.03 668.278M469.642 614.039L575.03 668.278M469.642 614.039L469.469 743.912L575.03 668.278M575.03 668.278L680.591 592.643L680.418 722.516M575.03 668.278L680.418 722.516M575.03 668.278L574.857 798.151L680.418 722.516M680.418 722.516L785.979 646.882L785.805 776.755M680.418 722.516L785.805 776.755M680.418 722.516L680.244 852.39L785.805 776.755M785.805 776.755L891.367 701.121L891.193 830.994M785.805 776.755L891.193 830.994M785.805 776.755L785.632 906.629L891.193 830.994M891.193 830.994L996.754 755.359L996.581 885.232M891.193 830.994L996.581 885.232M891.193 830.994L891.02 960.868L996.581 885.232M575.402 408.544L680.964 332.91L680.79 462.783M575.402 408.544L680.79 462.783M575.402 408.544L575.229 538.418L680.79 462.783M680.79 462.783L786.351 387.149L786.177 517.022M680.79 462.783L786.177 517.022M680.79 462.783L680.616 592.656L786.177 517.022M786.177 517.022L891.739 441.387L891.565 571.26M786.177 517.022L891.565 571.26M786.177 517.022L786.004 646.896L891.565 571.26M891.565 571.26L997.126 495.626L996.953 625.499M891.565 571.26L996.953 625.499M996.953 625.499L1102.51 549.865L1102.34 679.738M996.953 625.499L1102.34 679.738M996.953 625.499L891.392 701.134L891.565 571.261L996.953 625.499ZM996.953 625.499L996.779 755.373L1102.34 679.738M1102.34 679.738L1207.9 604.103L1207.73 733.977M1102.34 679.738L1207.73 733.977M1207.73 733.977L1102.17 809.611L1102.34 679.738L1207.73 733.977ZM364.813 170.2L470.374 94.5652L470.201 224.439M364.813 170.2L470.201 224.439M364.813 170.2L259.252 245.835L259.426 115.961L364.813 170.2ZM364.813 170.2L364.64 300.074L470.201 224.439M470.201 224.439L575.762 148.804L575.589 278.678M470.201 224.439L575.589 278.678M470.201 224.439L470.028 354.313L575.589 278.678M575.961 18.9431L470.4 94.5779L470.574 -35.2957M575.961 18.9431L470.574 -35.2957M575.961 18.9431L681.349 73.1823M575.961 18.9431L575.788 148.817L681.349 73.1823M575.961 18.9431L576.135 -110.931L470.574 -35.2957M575.961 18.9431L681.522 -56.6917L681.349 73.1815M575.961 18.9431L681.349 73.1815M681.349 73.1823L786.91 -2.45246L786.736 127.421L681.349 73.1823ZM786.736 127.42L681.175 203.055L681.349 73.1815M786.736 127.42L681.349 73.1815M786.736 127.42L892.124 181.659M786.736 127.42L786.563 257.294L892.124 181.659M786.736 127.42L892.297 51.7855L892.124 181.659M892.124 181.659L997.512 235.898M892.124 181.659L891.951 311.533L997.512 235.898M892.124 181.659L997.685 106.024L997.512 235.898M997.512 235.898L1102.9 290.137M997.512 235.898L997.338 365.771L1102.9 290.137M997.512 235.898L1103.07 160.263L1102.9 290.137M1102.9 290.137L1208.29 344.376M1102.9 290.137L1102.73 420.01L1208.29 344.376M1102.9 290.137L1208.46 214.502L1208.29 344.376M153.293 581.191L258.854 505.556L258.681 635.429M153.293 581.191L258.681 635.429M153.293 581.191L153.12 711.064L258.681 635.429M258.681 635.429L364.242 559.795L364.069 689.668M258.681 635.429L364.069 689.668M258.681 635.429L258.507 765.303L364.069 689.668M364.069 689.668L469.63 614.034L469.456 743.907M364.069 689.668L469.456 743.907M364.069 689.668L363.895 819.542L469.456 743.907M469.456 743.907L575.017 668.272L574.844 798.146M469.456 743.907L574.844 798.146M469.456 743.907L469.282 873.781L574.844 798.146M574.844 798.146L680.405 722.511L680.231 852.385M574.844 798.146L680.231 852.385M680.231 852.385L785.793 776.75L785.619 906.623M680.231 852.385L785.619 906.623M680.231 852.385L574.671 928.02L574.844 798.146L680.231 852.385ZM680.231 852.385L680.058 982.258L785.619 906.623M785.619 906.623L891.18 830.988L891.006 960.862M785.619 906.623L891.006 960.862M785.619 906.623L785.445 1036.5L891.006 960.862M575.589 278.678L681.15 203.043L680.976 332.916M575.589 278.678L680.976 332.916M575.589 278.678L575.415 408.551L680.976 332.916M680.976 332.916L786.537 257.281L786.364 387.155M680.976 332.916L786.364 387.155M680.976 332.916L680.803 462.79L786.364 387.155M786.364 387.155L891.925 311.52L891.751 441.394M786.364 387.155L891.751 441.394M786.364 387.155L786.19 517.029L891.751 441.394M891.751 441.394L997.313 365.759L997.139 495.633M891.751 441.394L997.139 495.633M891.751 441.394L891.578 571.267L997.139 495.633M997.139 495.633L1102.7 419.997L1102.53 549.871M997.139 495.633L1102.53 549.871M997.139 495.633L996.965 625.506L1102.53 549.871M1102.53 549.871L1208.09 474.237L1207.91 604.11M1102.53 549.871L1207.91 604.11M1102.53 549.871L1102.35 679.745L1207.91 604.11M153.666 321.457L259.227 245.822L259.053 375.695M153.666 321.457L259.053 375.695M153.666 321.457L153.492 451.33L259.053 375.695M259.053 375.695L364.615 300.061L364.441 429.934M259.053 375.695L364.441 429.934M259.053 375.695L258.88 505.569L364.441 429.934M364.441 429.934L470.002 354.299L469.829 484.173M364.441 429.934L469.829 484.173M364.441 429.934L364.268 559.808L469.829 484.173M469.829 484.173L575.39 408.538L575.217 538.411M469.829 484.173L575.217 538.411M469.829 484.173L469.655 614.046L575.217 538.411M575.217 538.411L680.777 462.776L680.604 592.65M575.217 538.411L680.604 592.65M575.217 538.411L575.043 668.285L680.604 592.65M680.604 592.65L786.165 517.015L785.992 646.889M680.604 592.65L785.992 646.889M680.604 592.65L680.431 722.524L785.992 646.889M785.992 646.889L891.553 571.254L891.379 701.128M785.992 646.889L891.379 701.128M785.992 646.889L785.818 776.762L891.379 701.128M891.379 701.128L996.94 625.493L996.767 755.366M891.379 701.128L996.767 755.366M891.379 701.128L891.206 831.001L996.767 755.366M996.767 755.366L1102.33 679.731L1102.15 809.605M996.767 755.366L1102.15 809.605M996.767 755.366L996.593 885.239L1102.15 809.605M470.387 94.5722L364.826 170.207L364.999 40.3336M470.387 94.5722L364.999 40.3336M470.387 94.5722L575.948 18.9375L575.775 148.811M470.387 94.5722L575.775 148.811M470.387 94.5722L470.213 224.446L575.775 148.811M470.387 94.5722L470.56 -35.3013L364.999 40.3336M575.775 148.811L681.336 73.1766L681.162 203.05M575.775 148.811L681.162 203.05M575.775 148.811L575.601 278.684L681.162 203.05M681.162 203.05L786.723 127.415L786.55 257.288M681.162 203.05L786.55 257.288M681.162 203.05L680.989 332.923L786.55 257.288M786.55 257.288L892.111 181.654L891.937 311.527M786.55 257.288L891.937 311.527M786.55 257.288L786.376 387.162L891.937 311.527M891.937 311.527L997.498 235.892L997.325 365.766M891.937 311.527L997.325 365.766M891.937 311.527L891.764 441.4L997.325 365.766M997.325 365.766L1102.89 290.131L1102.71 420.004M997.325 365.766L1102.71 420.004M997.325 365.766L997.151 495.64L1102.71 420.004M1102.71 420.004L1208.27 344.37L1208.1 474.243M1102.71 420.004L1208.1 474.243M1102.71 420.004L1102.54 549.878L1208.1 474.243M1103.27 30.4033L997.711 106.038L997.884 -23.8354M1103.27 30.4033L997.884 -23.8354M1103.27 30.4033L1208.66 84.6414L1103.1 160.276L1103.27 30.4033ZM997.884 -23.8354L892.323 51.799L892.496 -78.0745M997.884 -23.8354L892.496 -78.0745M258.309 895.164L152.921 840.925L258.482 765.29L258.309 895.164ZM258.309 895.164L363.87 819.529L363.696 949.402M258.309 895.164L363.696 949.402M997.698 106.032L892.137 181.666L892.31 51.793M997.698 106.032L892.31 51.793M997.698 106.032L1103.09 160.27M997.698 106.032L997.524 235.905L1103.09 160.27M997.698 106.032L997.871 -23.8419L892.31 51.793M997.698 106.032L1103.26 30.3969L1103.09 160.27M892.31 51.793L786.749 127.428L786.922 -2.44581M892.31 51.793L786.922 -2.44581M892.31 51.793L892.484 -78.0805L786.922 -2.44581M681.535 -56.6845L787.096 -132.319L786.922 -2.44581M681.535 -56.6845L786.922 -2.44581M681.535 -56.6845L576.147 -110.924M681.535 -56.6845L681.708 -186.558L576.147 -110.924M681.535 -56.6845L681.362 73.1891L786.922 -2.44581M681.535 -56.6845L575.974 18.9503L576.147 -110.924M574.658 928.013L469.096 1003.65L469.27 873.774M574.658 928.013L469.27 873.774M574.658 928.013L680.045 982.251M574.658 928.013L574.484 1057.89L680.045 982.251M574.658 928.013L574.831 798.139L469.27 873.774M574.658 928.013L680.219 852.378L680.045 982.251M469.27 873.774L363.709 949.408L363.882 819.535M469.27 873.774L363.882 819.535M469.27 873.774L469.443 743.901L363.882 819.535M1103.09 160.27L1208.47 214.509M1103.09 160.27L1102.91 290.144L1208.47 214.509M1103.09 160.27L1208.65 84.6352L1208.47 214.509M680.045 982.251L785.433 1036.49M680.045 982.251L679.872 1112.12L785.433 1036.49M680.045 982.251L785.606 906.617L785.433 1036.49M153.107 711.058L258.668 635.423L258.495 765.297M153.107 711.058L258.495 765.297M153.107 711.058L152.933 840.931L258.495 765.297M258.495 765.297L364.056 689.662L363.882 819.535M258.495 765.297L363.882 819.535M258.495 765.297L258.321 895.17L363.882 819.535M892.496 -78.0745L786.935 -2.4398L787.108 -132.313L892.496 -78.0745ZM363.696 949.402L469.257 873.767L469.084 1003.64M363.696 949.402L469.084 1003.64M469.084 1003.64L574.645 928.006L574.472 1057.88M469.084 1003.64L574.472 1057.88M574.472 1057.88L680.033 982.245L679.859 1112.12L574.472 1057.88ZM259.413 115.955L153.852 191.59L259.239 245.829L259.413 115.955ZM364.987 40.3278L259.426 115.963L364.814 170.201L364.987 40.3278ZM681.548 -56.6773L787.109 -132.312L681.721 -186.551L681.548 -56.6773Z" stroke="#1C1C1E" stroke-width="3" stroke-linecap="round" stroke-linejoin="round"/>
</g>
<defs>
<clipPath id="clip0_588_4147">
<rect width="400" height="400" fill="white" transform="matrix(-1 0 0 -1 400 400)"/>
</clipPath>
</defs>
</svg>
